<svg width="260" height="80" viewBox="24 16 260 80" fill="none" xmlns="http://www.w3.org/2000/svg">
  <path fill-rule="evenodd" clip-rule="evenodd" d="M31 22H58.5C79.4 22 94.5 36 94.5 56C94.5 76 79.4 90 58.5 90H31L45.2 22ZM55.9 38H60.8C72 38 79.2 45.1 79.2 56C79.2 66.9 72 74 60.8 74H49L55.9 38Z" fill="url(#base)"/>
  <path d="M45.2 22H58.5C79.4 22 94.5 36 94.5 56C91 44.7 82.6 38 69.4 38H55.9L45.2 22Z" fill="url(#foldTop)"/>
  <path d="M31 90H58.5C78.5 90 93.1 77.2 94.4 58.6C90.5 69.1 82.5 74 69.2 74H49L31 90Z" fill="url(#foldBottom)" opacity=".28"/>
  <text x="116" y="59" fill="#111827" font-family="Inter, Arial, sans-serif" font-size="34" font-weight="750" letter-spacing="0">DaSSLm</text>
  <text x="118" y="82" fill="#6B7280" font-family="Inter, Arial, sans-serif" font-size="14" font-weight="500" letter-spacing="0">Dns and SSL Manager</text>
  <defs>
    <linearGradient id="base" x1="31" y1="22" x2="94" y2="90" gradientUnits="userSpaceOnUse">
      <stop stop-color="#1D4ED8"/>
      <stop offset=".52" stop-color="#2563EB"/>
      <stop offset="1" stop-color="#06B6D4"/>
    </linearGradient>
    <linearGradient id="foldTop" x1="47" y1="23" x2="87" y2="50" gradientUnits="userSpaceOnUse">
      <stop stop-color="#FFFFFF" stop-opacity=".50"/>
      <stop offset=".72" stop-color="#FFFFFF" stop-opacity=".12"/>
      <stop offset="1" stop-color="#FFFFFF" stop-opacity="0"/>
    </linearGradient>
    <linearGradient id="foldBottom" x1="43" y1="86" x2="92" y2="62" gradientUnits="userSpaceOnUse">
      <stop stop-color="#0F3FAF"/>
      <stop offset="1" stop-color="#0284C7" stop-opacity="0"/>
    </linearGradient>
  </defs>
</svg>
